<mxfile host="app.diagrams.net" agent="Mozilla/5.0 (Windows NT 10.0; Win64; x64) AppleWebKit/537.36 (KHTML, like Gecko) Chrome/128.0.0.0 Safari/537.36" version="24.7.8">
  <diagram name="‫עמוד-1‬" id="9gCyP-xOjD5dcYOPeIzJ">
    <mxGraphModel dx="1050" dy="522" grid="1" gridSize="10" guides="1" tooltips="1" connect="1" arrows="1" fold="1" page="1" pageScale="1" pageWidth="827" pageHeight="1169" math="0" shadow="0">
      <root>
        <mxCell id="0" />
        <mxCell id="1" parent="0" />
        <mxCell id="nP1eanwkThaqdAtxU4lt-1" value="END" style="rounded=1;whiteSpace=wrap;html=1;" vertex="1" parent="1">
          <mxGeometry x="120" y="480" width="120" height="60" as="geometry" />
        </mxCell>
        <mxCell id="nP1eanwkThaqdAtxU4lt-26" value="" style="edgeStyle=orthogonalEdgeStyle;rounded=0;orthogonalLoop=1;jettySize=auto;html=1;" edge="1" parent="1" source="nP1eanwkThaqdAtxU4lt-2" target="nP1eanwkThaqdAtxU4lt-25">
          <mxGeometry relative="1" as="geometry" />
        </mxCell>
        <mxCell id="nP1eanwkThaqdAtxU4lt-2" value="START" style="rounded=1;whiteSpace=wrap;html=1;" vertex="1" parent="1">
          <mxGeometry x="120" y="10" width="120" height="60" as="geometry" />
        </mxCell>
        <mxCell id="nP1eanwkThaqdAtxU4lt-23" value="" style="edgeStyle=orthogonalEdgeStyle;rounded=0;orthogonalLoop=1;jettySize=auto;html=1;" edge="1" parent="1">
          <mxGeometry relative="1" as="geometry">
            <mxPoint x="180" y="370" as="sourcePoint" />
            <mxPoint x="180" y="370" as="targetPoint" />
          </mxGeometry>
        </mxCell>
        <mxCell id="nP1eanwkThaqdAtxU4lt-31" value="" style="edgeStyle=orthogonalEdgeStyle;rounded=0;orthogonalLoop=1;jettySize=auto;html=1;entryX=0.5;entryY=0;entryDx=0;entryDy=0;entryPerimeter=0;" edge="1" parent="1" source="nP1eanwkThaqdAtxU4lt-25" target="nP1eanwkThaqdAtxU4lt-27">
          <mxGeometry relative="1" as="geometry" />
        </mxCell>
        <mxCell id="nP1eanwkThaqdAtxU4lt-25" value="thing1(str)= enter an object" style="shape=card;whiteSpace=wrap;html=1;" vertex="1" parent="1">
          <mxGeometry x="120" y="100" width="120" height="80" as="geometry" />
        </mxCell>
        <mxCell id="nP1eanwkThaqdAtxU4lt-32" value="" style="edgeStyle=orthogonalEdgeStyle;rounded=0;orthogonalLoop=1;jettySize=auto;html=1;entryX=0.5;entryY=0;entryDx=0;entryDy=0;" edge="1" parent="1" source="nP1eanwkThaqdAtxU4lt-27" target="nP1eanwkThaqdAtxU4lt-28">
          <mxGeometry relative="1" as="geometry" />
        </mxCell>
        <mxCell id="nP1eanwkThaqdAtxU4lt-27" value="thing2(str)= enter an object" style="shape=card;whiteSpace=wrap;html=1;" vertex="1" parent="1">
          <mxGeometry x="120" y="200" width="120" height="70" as="geometry" />
        </mxCell>
        <mxCell id="nP1eanwkThaqdAtxU4lt-33" value="" style="edgeStyle=orthogonalEdgeStyle;rounded=0;orthogonalLoop=1;jettySize=auto;html=1;" edge="1" parent="1" source="nP1eanwkThaqdAtxU4lt-28" target="nP1eanwkThaqdAtxU4lt-30">
          <mxGeometry relative="1" as="geometry" />
        </mxCell>
        <mxCell id="nP1eanwkThaqdAtxU4lt-28" value="&quot;thing1&quot; &quot;*&quot; &quot;thing2&quot;" style="shape=document;whiteSpace=wrap;html=1;boundedLbl=1;" vertex="1" parent="1">
          <mxGeometry x="120" y="290" width="120" height="60" as="geometry" />
        </mxCell>
        <mxCell id="nP1eanwkThaqdAtxU4lt-34" value="" style="edgeStyle=orthogonalEdgeStyle;rounded=0;orthogonalLoop=1;jettySize=auto;html=1;" edge="1" parent="1" source="nP1eanwkThaqdAtxU4lt-30" target="nP1eanwkThaqdAtxU4lt-1">
          <mxGeometry relative="1" as="geometry" />
        </mxCell>
        <mxCell id="nP1eanwkThaqdAtxU4lt-30" value="&quot;thing1&quot; &quot;-&quot; &quot;thing2&quot;" style="shape=document;whiteSpace=wrap;html=1;boundedLbl=1;" vertex="1" parent="1">
          <mxGeometry x="120" y="380" width="120" height="60" as="geometry" />
        </mxCell>
      </root>
    </mxGraphModel>
  </diagram>
</mxfile>
